<svg xmlns="http://www.w3.org/2000/svg" width="452" height="449" viewBox="0 0 452 449" fill="none"><g clip-path="url(#clip0_474_25327)"><path d="M329.689 406.171L330.94 401.602L336.111 401.836C336.591 400.828 337.145 399.875 337.771 398.983L335.034 394.598L338.404 391.266L342.764 394.054C343.673 393.431 344.631 392.886 345.629 392.421L345.452 387.248L350.036 386.046L352.416 390.635C353.502 390.549 354.608 390.559 355.717 390.66L358.148 386.09L362.717 387.341L362.483 392.512C363.488 392.992 364.444 393.547 365.336 394.172L369.721 391.435L373.054 394.805L370.265 399.166C370.888 400.074 371.435 401.033 371.898 402.03L377.071 401.853L378.274 406.437L373.684 408.817C373.771 409.903 373.761 411.009 373.66 412.118L378.229 414.549L376.978 419.119L371.807 418.885C371.327 419.892 370.773 420.846 370.147 421.737L372.884 426.122L369.514 429.455L365.154 426.666C364.245 427.29 363.286 427.837 362.289 428.3L362.466 433.473L357.882 434.675L355.502 430.086C354.416 430.172 353.31 430.162 352.201 430.061L349.77 434.63L345.201 433.379L345.435 428.208C344.427 427.728 343.474 427.174 342.582 426.548L338.197 429.285L334.864 425.915L337.653 421.555C337.03 420.646 336.483 419.688 336.02 418.69L330.847 418.867L329.644 414.283L334.234 411.904C334.147 410.817 334.157 409.711 334.258 408.603L329.689 406.171ZM350.736 422.124C357.234 423.903 363.944 420.077 365.723 413.581C367.501 407.083 363.676 400.373 357.18 398.594C350.681 396.815 343.971 400.641 342.193 407.137C340.414 413.635 344.24 420.345 350.736 422.124Z" fill="#031339"></path><path d="M253.914 358.83L256.055 351.009L264.901 351.411C265.721 349.689 266.67 348.056 267.744 346.528L263.058 339.025L268.823 333.322L276.284 338.094C277.839 337.03 279.477 336.094 281.186 335.3L280.881 326.447L288.724 324.39L292.794 332.243C294.654 332.098 296.543 332.113 298.442 332.283L302.603 324.464L310.424 326.605L310.022 335.451C311.744 336.271 313.377 337.219 314.905 338.293L322.408 333.608L328.111 339.372L323.339 346.834C324.403 348.388 325.34 350.026 326.133 351.736L334.986 351.43L337.043 359.274L329.19 363.343C329.335 365.203 329.32 367.092 329.15 368.992L336.969 373.152L334.828 380.973L325.982 380.572C325.162 382.294 324.214 383.927 323.14 385.454L327.823 392.958L322.058 398.66L314.597 393.889C313.042 394.955 311.404 395.889 309.695 396.682L310 405.536L302.157 407.593L298.087 399.739C296.228 399.885 294.338 399.87 292.439 399.7L288.278 407.519L280.457 405.378L280.859 396.532C279.137 395.712 277.504 394.763 275.976 393.689L268.473 398.372L262.77 392.608L267.544 385.146C266.478 383.592 265.544 381.954 264.751 380.244L255.897 380.55L253.841 372.706L261.694 368.637C261.548 366.777 261.563 364.888 261.733 362.988L253.914 358.828V358.83ZM289.929 386.129C301.048 389.174 312.53 382.629 315.575 371.509C318.62 360.39 312.074 348.908 300.955 345.863C289.835 342.819 278.353 349.364 275.309 360.483C272.264 371.603 278.809 383.085 289.929 386.129Z" fill="#031339"></path><path d="M447.203 191.597L354.379 371.538C363.432 353.987 339.826 322.276 296.719 288.824C291.551 284.813 289.999 277.672 293 271.856L373.118 116.549C377.045 108.937 386.962 106.779 393.66 112.117C434.143 144.367 455.968 174.613 447.206 191.595L447.203 191.597Z" fill="white"></path><path d="M354.379 372.08C354.576 372.08 354.763 371.975 354.859 371.787L447.683 191.846C452.007 183.468 449.122 171.514 439.342 157.278C429.96 143.616 414.278 127.856 393.992 111.696C390.681 109.06 386.407 108.055 382.259 108.945C378.094 109.836 374.583 112.519 372.632 116.305L292.514 271.612C289.388 277.67 291.016 285.089 296.384 289.255C317.889 305.944 334.583 322.266 344.666 336.46C354.965 350.962 358.16 363.001 353.906 371.275L353.896 371.292C353.758 371.558 353.864 371.883 354.128 372.021C354.206 372.063 354.293 372.083 354.374 372.083L354.379 372.08ZM446.725 191.351L356.655 365.952C358.98 348.013 337.431 319.737 297.052 288.4C292.095 284.555 290.595 277.704 293.48 272.108L373.598 116.8C375.401 113.305 378.643 110.827 382.491 110.004C386.319 109.183 390.267 110.11 393.322 112.543C435.064 145.796 455.027 175.258 446.725 191.351Z" fill="#031339"></path><path d="M448.66 201.648L355.836 381.589C364.889 364.038 341.283 332.327 298.176 298.874C293.008 294.864 291.456 287.723 294.457 281.907L374.575 126.6C378.501 118.988 388.419 116.83 395.117 122.168C435.6 154.418 457.425 184.663 448.663 201.646L448.66 201.648Z" fill="white"></path><path d="M355.833 382.131C356.03 382.131 356.218 382.025 356.314 381.838L449.14 201.897C453.464 193.519 450.579 181.565 440.8 167.329C431.417 153.667 415.735 137.906 395.452 121.747C392.141 119.111 387.864 118.108 383.719 118.995C379.553 119.887 376.043 122.57 374.092 126.356L293.974 281.663C290.848 287.721 292.476 295.14 297.843 299.306C319.349 315.995 336.043 332.317 346.125 346.511C356.432 361.023 359.624 373.068 355.355 381.343C355.218 381.609 355.323 381.934 355.587 382.072C355.666 382.114 355.752 382.134 355.833 382.134V382.131ZM448.18 201.402L358.11 376C360.435 358.062 338.885 329.785 298.506 298.448C293.55 294.603 292.05 287.753 294.934 282.156L375.052 126.848C376.856 123.353 380.097 120.875 383.945 120.052C387.773 119.232 391.722 120.158 394.777 122.592C436.518 155.845 456.481 185.306 448.18 201.4V201.402Z" fill="#031339"></path><path d="M235.518 39.9433L155.266 195.507C152.111 201.623 144.883 204.422 138.432 202.022C72.2708 177.413 19.385 172.566 8.72604 193.228L101.55 13.2873C112.037 -7.04031 163.403 -2.67523 228.071 20.909C235.776 23.7196 239.277 32.6518 235.518 39.9433Z" fill="white"></path><path d="M143.164 203.419C148.328 203.419 153.262 200.579 155.75 195.756L236.001 40.1924C237.863 36.5835 238.083 32.3441 236.605 28.5579C235.124 24.7693 232.082 21.796 228.259 20.4017C195.984 8.63182 167.032 1.60878 144.532 0.0913523C121.282 -1.47534 106.251 3.00058 101.073 13.0388L8.24883 192.98C8.11087 193.246 8.21678 193.571 8.48283 193.709C8.74887 193.847 9.07402 193.741 9.21198 193.477C14.2619 183.688 29.3154 179.441 52.7297 181.19C75.767 182.912 105.34 190.292 138.248 202.53C139.864 203.131 141.526 203.417 143.167 203.417L143.164 203.419ZM235.038 39.6972L154.787 195.261C151.759 201.128 144.808 203.818 138.622 201.518C75.9862 178.219 27.9138 173.381 11.9586 188.147L102.034 13.5364C112.062 -5.90199 161.462 -2.80802 227.887 21.4191C231.417 22.7074 234.227 25.4516 235.595 28.9521C236.959 32.4476 236.757 36.3618 235.038 39.6948V39.6972Z" fill="#031339"></path><path d="M236.974 49.9936L156.723 205.557C153.568 211.674 146.34 214.472 139.889 212.073C73.7277 187.464 20.8418 182.616 10.1829 203.279L103.007 23.3376C113.494 3.00999 164.86 7.37505 229.528 30.9592C237.233 33.7699 240.734 42.7021 236.974 49.9936Z" fill="white"></path><path d="M144.617 213.47C149.781 213.47 154.715 210.629 157.203 205.806L237.454 50.2427C239.316 46.6338 239.536 42.3944 238.057 38.6082C236.577 34.8196 233.535 31.8463 229.712 30.452C197.437 18.6821 168.485 11.6591 145.985 10.1416C122.726 8.57495 107.702 13.0509 102.526 23.0891L9.70174 203.03C9.56378 203.296 9.66969 203.621 9.93575 203.759C10.2018 203.897 10.5269 203.791 10.6649 203.528C15.7148 193.738 30.7635 189.491 54.1826 191.24C77.2199 192.962 106.793 200.342 139.701 212.58C141.316 213.181 142.979 213.467 144.62 213.467L144.617 213.47ZM236.491 49.7475L156.24 205.311C153.212 211.179 146.263 213.869 140.075 211.568C77.4391 188.272 29.3667 183.431 13.4116 198.197L103.487 23.5866C113.515 4.14829 162.913 7.24227 229.34 31.4694C232.87 32.7577 235.68 35.5044 237.048 39.0023C238.412 42.4979 238.21 46.4121 236.491 49.745V49.7475Z" fill="#031339"></path><path d="M142.27 109.026C144.159 109.656 146.108 110.223 148.123 110.711C160.974 113.824 163.595 110.718 197.203 109.548C238.254 108.117 252.143 112.13 261.819 116.367C267.337 118.783 271.704 121.37 279.365 125.902C305.423 141.325 312.094 151.048 318.878 148.851C320.432 148.348 321.991 147.213 323.398 145.035C333.825 152.893 345.706 151.154 352.207 149.253C352.204 150.723 352.143 152.221 352.007 153.746C351.618 158.155 350.938 165.875 346.194 172.383C335.981 186.395 310.788 189.506 283.886 180.34C285.588 184.03 299.316 215.086 283.137 243.971C266.423 273.81 229.854 279.803 205.819 275.707C166.618 269.026 135.281 231.162 140.636 208.629C141.558 204.752 145.617 199.15 153.697 188.102C163.253 175.039 171.896 164.86 178.001 158.012C171.436 157.611 148.761 155.421 129.007 137.224C127.214 135.571 125.558 133.886 124.019 132.184C135.261 128.42 140.191 116.825 142.275 109.026H142.27Z" fill="white"></path><path d="M219.823 277.397C229.218 277.397 238.784 275.928 247.391 273.076C263.503 267.738 276.027 257.764 283.607 244.232C298.599 217.468 288.277 189.08 284.88 181.242C311.734 190.058 336.443 186.676 346.629 172.701C351.463 166.07 352.14 158.384 352.544 153.793C352.675 152.322 352.741 150.795 352.746 149.255C352.746 149.085 352.667 148.923 352.529 148.822C352.394 148.718 352.216 148.686 352.051 148.735C345.903 150.534 334.047 152.388 323.72 144.604C323.6 144.513 323.447 144.479 323.299 144.503C323.151 144.53 323.021 144.617 322.939 144.742C321.732 146.609 320.308 147.819 318.707 148.339C314.958 149.553 311.046 146.728 303.25 141.099C297.788 137.158 290.312 131.758 279.638 125.439C271.864 120.838 267.583 118.303 262.033 115.874C252.694 111.785 239.212 107.546 197.18 109.011C183.713 109.482 175.234 110.258 169.044 110.827C159.725 111.681 155.867 112.036 148.248 110.189C146.334 109.726 144.38 109.161 142.439 108.516C142.296 108.469 142.144 108.482 142.011 108.553C141.88 108.624 141.784 108.745 141.745 108.89C139.498 117.303 134.566 128.083 123.841 131.674C123.668 131.733 123.535 131.874 123.489 132.051C123.442 132.228 123.489 132.416 123.612 132.551C125.223 134.33 126.913 136.039 128.635 137.626C146.154 153.765 165.945 157.653 176.857 158.48C168.62 167.777 160.683 177.631 153.253 187.784C144.804 199.338 141.03 204.609 140.104 208.506C138.111 216.892 140.981 227.509 148.184 238.402C160.877 257.596 183.464 272.448 205.723 276.241C210.278 277.017 215.027 277.399 219.821 277.399L219.823 277.397ZM283.883 179.798C283.733 179.798 283.585 179.862 283.481 179.978C283.336 180.138 283.301 180.37 283.393 180.567C286.006 186.228 298.249 215.882 282.663 243.705C267.014 271.645 231.903 279.601 205.91 275.172C183.932 271.425 161.629 256.756 149.093 237.801C142.055 227.161 139.239 216.845 141.161 208.753C142.075 204.902 146.358 199.049 154.133 188.42C161.759 177.993 169.925 167.883 178.402 158.372C178.54 158.217 178.577 157.998 178.498 157.805C178.419 157.613 178.237 157.485 178.03 157.473C167.533 156.832 147.253 153.297 129.371 136.825C127.866 135.438 126.388 133.96 124.964 132.42C135.377 128.519 140.313 118.096 142.641 109.718C144.432 110.3 146.23 110.812 147.994 111.238C155.788 113.127 159.971 112.743 169.145 111.901C175.323 111.334 183.782 110.558 197.222 110.088C239.023 108.629 252.372 112.82 261.602 116.862C267.09 119.266 271.352 121.789 279.089 126.368C289.721 132.662 297.175 138.044 302.619 141.973C310.711 147.816 314.773 150.748 319.042 149.366C320.742 148.814 322.25 147.619 323.528 145.806C333.741 153.204 345.24 151.723 351.657 149.969C351.637 151.233 351.573 152.485 351.467 153.697C351.073 158.177 350.413 165.676 345.757 172.063C335.704 185.856 310.908 188.974 284.06 179.825C284.003 179.806 283.944 179.796 283.885 179.796L283.883 179.798Z" fill="#031339"></path><path d="M92.1437 81.0175L95.654 83.2592L90.2864 73.5979C90.0252 73.1274 90.008 72.5608 90.2371 72.0755C90.7618 70.9695 92.262 70.7872 93.0355 71.7356L100.167 80.4805L95.2574 68.1366C94.8534 67.1217 95.2377 65.9615 96.1689 65.39C97.3439 64.6657 98.8859 65.1609 99.423 66.432L104.116 77.5688L102.492 67.8583C102.3 66.7005 103.16 65.5722 104.332 65.5821C105.062 65.5895 105.766 66.0107 106.044 67.437C106.71 70.8635 110.183 84.5672 110.183 84.5672C110.183 84.5672 111.69 84.0253 113.637 81.3895C115.583 78.7512 116.378 80.2095 116.378 80.2095C117.568 84.2322 114.683 88.6268 112.58 91.1567C119.696 97.6353 129.565 104.791 142.266 109.023C140.182 116.822 135.255 128.417 124.01 132.181C111.7 118.581 107.168 103.924 105.471 96.5416C100.509 94.5019 92.1117 85.3284 90.2469 83.2444C90.0031 82.9734 89.8725 82.6236 89.8725 82.2615C89.8725 81.0939 91.1633 80.3869 92.1462 81.015L92.1437 81.0175Z" fill="white"></path><path d="M124.012 132.724C124.069 132.724 124.128 132.714 124.185 132.697C135.366 128.955 140.475 117.835 142.79 109.167C142.864 108.891 142.709 108.605 142.438 108.514C132.126 105.077 122.337 99.222 113.326 91.1027C115.679 88.1689 118.063 83.9959 116.898 80.0595C116.886 80.0225 116.873 79.9881 116.854 79.9536C116.819 79.8895 116.489 79.3229 115.765 79.2737C114.967 79.2195 114.134 79.8082 113.2 81.0719C112.072 82.6017 111.104 83.3875 110.535 83.7619C109.828 80.9586 107.143 70.275 106.574 67.3387C106.19 65.3557 105.007 65.0502 104.337 65.0453H104.318C103.638 65.0453 102.987 65.3483 102.534 65.8804C102.044 66.4544 101.834 67.2082 101.958 67.9521L102.82 73.1054L99.9204 66.2253C99.6027 65.474 98.977 64.9 98.201 64.6512C97.4226 64.4024 96.5801 64.5059 95.8855 64.932C94.7277 65.6439 94.2547 67.0776 94.7572 68.3413L98.3685 77.4212L93.4566 71.3983C92.9738 70.8071 92.2323 70.5115 91.481 70.6027C90.7247 70.6938 90.0769 71.1594 89.7517 71.8491C89.4462 72.4921 89.4709 73.2458 89.8157 73.8666L94.1439 81.6557L92.4368 80.5645C91.8061 80.1605 91.0376 80.1359 90.3799 80.4955C89.7221 80.8552 89.3305 81.5178 89.3305 82.2667C89.3305 82.7643 89.5128 83.2421 89.8429 83.6117C92.1609 86.2006 100.012 94.7042 105.005 96.9384C107.185 106.265 112.178 119.924 123.608 132.551C123.712 132.667 123.859 132.729 124.01 132.729L124.012 132.724ZM141.61 109.376C139.327 117.623 134.464 127.927 124.175 131.556C112.961 119.052 108.101 105.565 106 96.4236C105.961 96.2536 105.84 96.1107 105.677 96.0442C100.792 94.0341 92.3037 84.73 90.6508 82.885C90.4981 82.715 90.4143 82.4933 90.4143 82.2617C90.4143 81.9144 90.5966 81.6065 90.9021 81.439C91.2075 81.2715 91.5623 81.2838 91.8579 81.471L95.3682 83.7127C95.5775 83.8457 95.8485 83.821 96.0308 83.6511C96.2106 83.4811 96.2525 83.2101 96.1318 82.9934L90.7642 73.3321C90.5893 73.0143 90.5745 72.63 90.7297 72.3024C90.8996 71.9452 91.2199 71.7136 91.6115 71.6668C92.0057 71.62 92.3702 71.7678 92.619 72.0733L99.7505 80.8182C99.918 81.0251 100.214 81.0793 100.445 80.9438C100.677 80.8084 100.773 80.5251 100.674 80.2787L95.7648 67.9349C95.4568 67.1614 95.7475 66.2844 96.457 65.8484C96.8831 65.5873 97.4004 65.5232 97.8759 65.6759C98.3513 65.8287 98.7356 66.1785 98.9302 66.6391L103.623 77.776C103.729 78.0297 104.007 78.1627 104.273 78.0863C104.537 78.01 104.702 77.7489 104.655 77.4779L103.032 67.7673C102.96 67.3461 103.086 66.9027 103.362 66.5775C103.615 66.2819 103.983 66.1169 104.332 66.1218C104.581 66.1218 105.244 66.1292 105.517 67.5382C106.177 70.9401 109.52 84.1388 109.661 84.698C109.698 84.8458 109.796 84.9714 109.932 85.0429C110.067 85.1143 110.225 85.1266 110.368 85.0749C110.434 85.0503 112.055 84.4467 114.075 81.7075C115.036 80.4044 115.568 80.3379 115.696 80.3453C115.792 80.3526 115.856 80.4068 115.888 80.4388C116.962 84.2718 114.026 88.5729 112.171 90.8047C111.986 91.0264 112.008 91.3565 112.222 91.5511C121.307 99.8206 131.195 105.814 141.615 109.369L141.61 109.376Z" fill="#031339"></path><path d="M328.821 113.982C326.51 110.213 327.173 101.156 329.754 96.756C332.368 92.3022 341.347 79.5667 341.347 79.5667C345.788 83.0351 339.169 93.2728 339.169 93.2728C346.845 98.1872 342.542 103.405 342.542 103.405C345.638 109.844 341.692 112.039 339.332 112.755C344.456 119.636 352.245 132.667 352.203 149.255C345.7 151.157 333.821 152.896 323.394 145.038C326.323 140.503 328.594 131.423 328.821 113.982Z" fill="white"></path><path d="M341.331 151.398C345.716 151.398 349.593 150.58 352.357 149.772C352.586 149.706 352.746 149.494 352.746 149.255C352.785 133.662 346.053 121.037 340.208 113.024C341.54 112.504 343.038 111.563 343.777 109.883C344.536 108.156 344.331 105.999 343.171 103.464C343.612 102.811 344.558 101.101 344.215 98.9139C343.88 96.7856 342.434 94.8346 339.909 93.1127C341.178 91.0164 345.95 82.4735 341.683 79.1406C341.567 79.0494 341.417 79.01 341.272 79.0322C341.126 79.0543 340.993 79.1356 340.91 79.2563C340.821 79.3844 331.886 92.0633 329.292 96.4851C326.795 100.742 325.883 109.979 328.282 114.13C328.076 129.282 326.28 139.584 322.944 144.747C322.789 144.986 322.846 145.301 323.072 145.471C329.118 150.026 335.65 151.401 341.336 151.401L341.331 151.398ZM351.662 148.846C345.494 150.583 334.135 152.184 324.117 144.897C327.403 139.419 329.167 129.026 329.361 113.987C329.361 113.886 329.334 113.785 329.283 113.697C327.171 110.253 327.672 101.372 330.221 97.027C332.497 93.1472 339.74 82.7937 341.434 80.3821C344.548 83.8579 338.779 92.8836 338.717 92.9772C338.638 93.0979 338.611 93.2457 338.643 93.3862C338.673 93.5266 338.759 93.6497 338.88 93.7261C341.407 95.3445 342.841 97.1452 343.146 99.0765C343.504 101.355 342.141 103.04 342.129 103.057C341.996 103.22 341.966 103.447 342.058 103.636C343.196 106.001 343.439 107.957 342.787 109.445C342.077 111.058 340.434 111.851 339.178 112.233C339.01 112.285 338.877 112.416 338.821 112.581C338.766 112.748 338.796 112.933 338.9 113.073C344.693 120.85 351.583 133.344 351.662 148.844V148.846Z" fill="#031339"></path><path d="M334.383 110.627C334.509 110.627 334.635 110.583 334.736 110.494C334.891 110.361 338.492 107.186 336.83 103.624C335.504 100.781 335.706 100.451 336.83 98.6183L336.977 98.3768C338.414 96.0194 337.022 93.928 336.963 93.8393C336.874 93.7088 336.734 93.625 336.576 93.6053C336.418 93.5881 336.263 93.6398 336.147 93.7457L330.969 98.5345C330.75 98.7365 330.735 99.0789 330.94 99.2981C331.144 99.5174 331.484 99.5297 331.703 99.3277L336.347 95.0341C336.566 95.6524 336.734 96.6919 336.054 97.8127L335.908 98.0517C334.645 100.116 334.349 100.855 335.852 104.08C337.167 106.898 334.061 109.649 334.029 109.676C333.805 109.873 333.78 110.213 333.975 110.44C334.08 110.563 334.231 110.627 334.383 110.627Z" fill="#031339"></path><path d="M339.416 106.398C340.025 106.398 340.628 106.161 341.077 105.701L342.934 103.782C343.141 103.567 343.136 103.225 342.922 103.018C342.708 102.811 342.365 102.816 342.156 103.03L340.298 104.949C339.86 105.403 339.133 105.444 338.643 105.045C338.411 104.856 338.071 104.89 337.882 105.122C337.692 105.353 337.727 105.693 337.958 105.883C338.382 106.23 338.899 106.4 339.416 106.4V106.398Z" fill="#031339"></path><path d="M161.806 385.422C161.696 386.046 142.639 413.566 142.639 413.566L158.02 417.589L173.18 393.884L161.806 385.422Z" fill="white"></path><path d="M158.019 418.128C158.201 418.128 158.373 418.037 158.474 417.879L173.634 394.174C173.787 393.935 173.728 393.618 173.501 393.45L162.128 384.989C161.977 384.878 161.78 384.851 161.605 384.92C161.458 384.979 161.342 385.099 161.293 385.25C160.773 386.311 149.606 402.55 142.192 413.256C142.091 413.401 142.069 413.586 142.13 413.751C142.192 413.916 142.33 414.041 142.5 414.086L157.881 418.108C157.925 418.121 157.972 418.126 158.019 418.126V418.128ZM172.452 394.017L157.775 416.965L143.522 413.238C151.2 402.148 160.024 389.327 161.953 386.208L172.452 394.017Z" fill="#031339"></path><path d="M158.101 409.876C158.101 409.876 156.312 401.831 147.531 404.134C147.531 404.134 128.812 423.001 120.118 439.781C117.66 444.528 122.013 449.972 127.193 448.659C139.318 445.587 158.8 438.076 172.371 420.141C172.371 420.141 170.694 411.472 166.365 406.839L158.098 409.876H158.101Z" fill="white"></path><path d="M125.634 449.395C126.194 449.395 126.763 449.326 127.327 449.183C140.732 445.786 159.503 438.047 172.805 420.466C172.899 420.342 172.933 420.187 172.904 420.037C172.835 419.677 171.147 411.162 166.763 406.469C166.615 406.309 166.383 406.257 166.181 406.331L158.459 409.169C158.094 408.075 157.082 405.73 154.756 404.311C152.756 403.092 150.28 402.855 147.396 403.611C147.302 403.636 147.218 403.685 147.149 403.754C146.962 403.944 128.273 422.872 119.641 439.534C118.409 441.914 118.683 444.703 120.358 446.814C121.678 448.479 123.605 449.398 125.637 449.398L125.634 449.395ZM171.793 420.007C158.69 437.199 140.25 444.791 127.061 448.132C124.863 448.688 122.619 447.925 121.203 446.139C119.796 444.365 119.565 442.025 120.599 440.03C128.824 424.156 146.3 406.163 147.812 404.621C150.334 403.988 152.478 404.193 154.182 405.23C156.833 406.841 157.564 409.964 157.572 409.996C157.606 410.149 157.705 410.277 157.84 410.354C157.978 410.427 158.141 410.44 158.286 410.386L166.211 407.474C169.825 411.568 171.495 418.64 171.79 420.012L171.793 420.007Z" fill="#031339"></path><path d="M127.348 443.348C133.959 443.348 148.232 440.417 168.897 420.488C169.111 420.281 169.119 419.939 168.912 419.725C168.705 419.51 168.362 419.503 168.146 419.71C140.031 446.821 123.692 441.873 123.529 441.821C123.246 441.727 122.941 441.882 122.847 442.163C122.753 442.447 122.906 442.752 123.189 442.846C123.379 442.91 124.791 443.348 127.348 443.348Z" fill="#031339"></path><path d="M140.086 428.462C140.238 428.462 140.391 428.398 140.497 428.272C140.689 428.046 140.662 427.703 140.435 427.509L133.723 421.808C133.494 421.616 133.154 421.643 132.959 421.87C132.767 422.097 132.794 422.439 133.021 422.631L139.733 428.331C139.834 428.418 139.96 428.459 140.083 428.459L140.086 428.462Z" fill="#031339"></path><path d="M144.831 423.511C144.991 423.511 145.149 423.439 145.255 423.306C145.439 423.072 145.4 422.732 145.166 422.548L137.83 416.736C137.596 416.552 137.256 416.591 137.069 416.825C136.884 417.059 136.924 417.399 137.158 417.584L144.494 423.395C144.592 423.474 144.713 423.511 144.829 423.511H144.831Z" fill="#031339"></path><path d="M208.883 322.764L221.648 332.566L210.44 347.794L198.488 336.401L208.883 322.764Z" fill="white"></path><path d="M210.437 348.336C210.452 348.336 210.47 348.336 210.484 348.336C210.64 348.324 210.78 348.243 210.874 348.117L222.082 332.889C222.257 332.652 222.21 332.317 221.976 332.14L209.211 322.338C209.097 322.252 208.952 322.212 208.809 322.232C208.666 322.252 208.538 322.326 208.45 322.441L198.054 336.076C197.887 336.295 197.911 336.606 198.111 336.795L210.061 348.188C210.162 348.285 210.295 348.339 210.435 348.339L210.437 348.336ZM220.897 332.672L210.366 346.979L199.212 336.342L208.984 323.523L220.897 332.669V332.672Z" fill="#031339"></path><path d="M202.842 346.008L214.706 336.399L216.94 328.346C223.17 328.193 230.163 332.834 233.999 335.82C235.775 337.202 236.354 339.631 235.361 341.651C229.033 354.507 214.762 374.564 207.855 384.008C206.116 386.388 202.345 385.619 201.736 382.732C198.687 368.275 202.842 346.006 202.842 346.006V346.008Z" fill="white"></path><path d="M205.1 385.964C206.354 385.964 207.529 385.378 208.295 384.331C215.911 373.916 229.618 354.554 235.85 341.892C236.946 339.663 236.308 336.931 234.335 335.394C230.667 332.539 223.617 327.802 217.242 327.802C217.138 327.802 217.032 327.802 216.929 327.807C216.69 327.812 216.485 327.974 216.421 328.203L214.234 336.088L202.503 345.59C202.402 345.671 202.336 345.784 202.311 345.91C202.269 346.134 198.17 368.452 201.208 382.848C201.53 384.383 202.691 385.54 204.233 385.87C204.523 385.932 204.814 385.964 205.1 385.964ZM217.355 328.886C223.378 328.94 230.132 333.497 233.67 336.249C235.241 337.473 235.749 339.643 234.879 341.414C228.684 354.002 215.017 373.305 207.42 383.693C206.735 384.629 205.6 385.06 204.462 384.814C203.343 384.572 202.503 383.735 202.269 382.624C199.427 369.147 202.947 348.526 203.343 346.302L215.052 336.82C215.138 336.749 215.202 336.653 215.232 336.544L217.357 328.886H217.355Z" fill="#031339"></path><path d="M206.821 378.791C206.991 378.791 207.161 378.709 207.267 378.559L226.165 351.322C227.461 349.457 228.035 347.11 227.789 344.718C227.318 340.183 229.151 335.527 229.168 335.48C229.279 335.202 229.144 334.889 228.868 334.778C228.589 334.667 228.274 334.803 228.166 335.081C228.087 335.28 226.217 340.032 226.715 344.831C226.937 346.967 226.427 349.053 225.279 350.706L206.38 377.943C206.21 378.19 206.271 378.525 206.515 378.697C206.609 378.761 206.717 378.793 206.823 378.793L206.821 378.791Z" fill="#031339"></path><path d="M196.158 193.433C196.158 193.433 159.711 222.213 140.425 249.149C135.035 256.677 134.274 266.585 138.363 274.891C147.241 292.926 166.44 325.265 196.158 341.395L221.115 309.507C221.115 309.507 199.292 285.378 183.248 274.386L224.157 228.533L234.328 205.506L196.156 193.433H196.158Z" fill="#031339"></path><path d="M178.622 408.378C177.329 410.657 147.934 389.167 147.934 389.167C147.934 389.167 170.424 362.843 206.165 229.046C206.581 227.489 213.171 194.768 213.171 194.768L262.012 220.368C262.012 220.368 253.429 276.673 178.622 408.376V408.378Z" fill="#031339"></path><path d="M200.293 251.044C200.532 251.044 200.748 250.886 200.815 250.645L205.409 233.859C206.264 230.738 205.705 227.415 203.879 224.745L201.066 220.634C200.899 220.387 200.561 220.323 200.315 220.493C200.068 220.661 200.004 220.998 200.174 221.244L202.988 225.356C204.636 227.765 205.138 230.758 204.367 233.574L199.773 250.359C199.694 250.647 199.864 250.945 200.152 251.024C200.199 251.036 200.248 251.044 200.295 251.044H200.293Z" fill="white"></path><path d="M170.456 338.858C170.666 338.858 170.865 338.734 170.954 338.53C171.065 338.269 182.157 312.246 186.276 299.17C186.365 298.885 186.207 298.582 185.924 298.493C185.636 298.404 185.335 298.562 185.244 298.845C181.142 311.869 170.07 337.843 169.959 338.104C169.841 338.38 169.969 338.697 170.245 338.813C170.314 338.843 170.385 338.858 170.456 338.858Z" fill="white"></path><path d="M273.507 133.714C272.578 153.209 269.822 201.85 264.727 221.387C264.072 223.897 261.301 225.205 258.936 224.139C247.297 218.887 214.243 204.863 189.09 202.966C185.506 202.695 183.131 199.131 184.249 195.714C189.068 180.988 199.838 146.425 202.87 122.801C203.732 116.086 209.068 110.91 215.699 110.393C227.942 109.44 247.718 110.139 266.341 120.596C270.994 123.21 273.765 128.307 273.507 133.711V133.714Z" fill="white"></path><path d="M260.665 225.053C261.367 225.053 262.066 224.897 262.717 224.587C263.976 223.986 264.897 222.87 265.249 221.525C270.341 202 273.097 153.63 274.046 133.741C274.312 128.159 271.39 122.816 266.604 120.128C248.198 109.792 228.737 108.836 215.654 109.856C208.823 110.388 203.219 115.803 202.33 122.735C199.283 146.479 188.309 181.564 183.732 195.549C183.145 197.34 183.409 199.264 184.456 200.83C185.5 202.392 187.173 203.368 189.045 203.508C213.817 205.375 246.015 218.904 258.709 224.634C259.332 224.915 259.997 225.055 260.665 225.055V225.053ZM272.964 133.687C272.016 153.541 269.267 201.823 264.202 221.249C263.931 222.286 263.222 223.146 262.251 223.609C261.273 224.077 260.145 224.089 259.157 223.644C246.412 217.892 214.073 204.306 189.129 202.427C187.592 202.311 186.215 201.508 185.357 200.224C184.495 198.936 184.279 197.355 184.761 195.881C189.348 181.87 200.345 146.703 203.404 122.868C204.229 116.443 209.415 111.423 215.738 110.933C228.676 109.925 247.905 110.866 266.074 121.069C270.508 123.56 273.213 128.511 272.967 133.687H272.964Z" fill="#031339"></path><path d="M251.318 85.3286C251.318 85.3286 255.116 77.6084 256.454 76.2486C257.794 74.8889 258.828 73.4552 254.889 70.8194C250.951 68.1836 240.661 61.1483 234.355 61.1951C228.049 61.2394 223.632 65.2227 225.573 68.0949C227.514 70.9672 228.403 72.1767 226.908 72.3615C225.413 72.5462 224.588 74.2164 228.825 76.6723C233.064 79.1283 247.839 89.7848 251.318 85.3286Z" fill="#031339"></path><path d="M229.73 112.152L231.932 100.449C225.303 97.1206 227.973 92.5043 228.964 88.8191C230.03 84.8531 233.316 76.2437 233.316 76.2437C238.756 79.4386 249.419 78.4853 249.419 78.4853C249.419 78.4853 247.89 80.9216 248.769 82.1237C249.646 83.3258 249.099 87.9372 249.099 87.9372C249.099 87.9372 251.003 86.1464 253.041 87.516C254.186 88.287 252.878 91.5756 251.939 93.4206C251.001 95.2657 248.981 95.6278 248.981 95.6278C248.981 95.6278 248.648 95.4283 247.969 97.0541L251.587 116.118L258.692 119.067L242.884 121.2C237.896 121.872 232.846 120.532 228.85 117.473L223.187 113.137L229.73 112.152Z" fill="white"></path><path d="M240.391 121.909C241.246 121.909 242.103 121.853 242.955 121.737L258.763 119.604C259.004 119.572 259.196 119.38 259.226 119.138C259.258 118.897 259.122 118.663 258.896 118.569L252.062 115.731L248.53 97.1157C248.803 96.49 248.986 96.2486 249.062 96.1624C249.067 96.1624 249.072 96.1624 249.077 96.1624C249.17 96.1452 251.373 95.7289 252.422 93.667C253.245 92.0511 254.984 88.1713 253.343 87.0677C252.035 86.1883 250.7 86.4075 249.747 86.8632C249.863 85.3113 249.922 82.7839 249.207 81.806C248.67 81.0694 249.535 79.3278 249.88 78.7736C249.988 78.5987 249.988 78.3794 249.88 78.2045C249.771 78.0296 249.579 77.9311 249.37 77.9483C249.264 77.9582 238.812 78.8475 233.587 75.7781C233.449 75.6968 233.284 75.6821 233.134 75.7338C232.984 75.7855 232.865 75.9038 232.809 76.0516C232.673 76.4038 229.501 84.7324 228.439 88.6787C228.308 89.1616 228.151 89.6592 227.983 90.1863C226.916 93.5291 225.594 97.6725 231.323 100.744L229.267 111.674L223.103 112.603C222.889 112.635 222.714 112.793 222.66 113.002C222.606 113.211 222.682 113.435 222.854 113.566L228.518 117.902C231.915 120.503 236.132 121.907 240.389 121.907L240.391 121.909ZM256.632 118.801L242.81 120.665C237.999 121.316 233.031 119.995 229.178 117.044L224.527 113.485L229.811 112.689C230.038 112.655 230.22 112.48 230.262 112.253L232.464 100.55C232.508 100.313 232.39 100.074 232.176 99.9658C226.852 97.2931 227.954 93.8493 229.015 90.5164C229.188 89.9769 229.35 89.4695 229.486 88.9596C230.373 85.6587 232.848 79.015 233.602 77.0172C238.275 79.4042 245.801 79.2416 248.488 79.0938C248.064 80.0274 247.621 81.4709 248.333 82.444C248.85 83.1534 248.779 86.0454 248.562 87.8732C248.535 88.0999 248.653 88.3166 248.855 88.4201C249.06 88.5211 249.303 88.4866 249.469 88.3314C249.533 88.2723 251.092 86.8583 252.737 87.9644C253.228 88.2945 252.878 90.3809 251.454 93.1744C250.747 94.5637 249.291 94.9948 248.951 95.0786C248.877 95.0786 248.794 95.0884 248.715 95.1155C248.431 95.2091 248.032 95.4899 247.466 96.8448C247.424 96.9433 247.414 97.0492 247.434 97.1552L251.052 116.219C251.087 116.399 251.208 116.549 251.378 116.618L256.632 118.798V118.801ZM248.705 96.0935C248.727 96.1058 248.749 96.1181 248.771 96.1279C248.749 96.1181 248.727 96.1082 248.705 96.0935Z" fill="#031339"></path><path d="M238.035 102.375C244.083 102.375 246.334 97.7046 246.364 97.643C246.489 97.3721 246.371 97.0494 246.1 96.9262C245.829 96.8006 245.509 96.9188 245.383 97.1898C245.248 97.478 242.004 104.085 232.143 99.9512C231.867 99.8354 231.549 99.966 231.436 100.242C231.32 100.518 231.451 100.833 231.727 100.949C234.18 101.979 236.271 102.375 238.04 102.375H238.035Z" fill="#031339"></path><path d="M253.849 81.5746L251.824 87.4916C251.824 87.4916 238.938 95.1945 223.597 92.0759C221.493 91.6473 220.155 89.5682 220.631 87.4744L221.813 77.0667C222.284 74.9925 224.355 73.7017 226.425 74.1895L253.852 81.5746H253.849Z" fill="white"></path><path d="M231.018 93.3519C242.911 93.3519 251.994 88.0212 252.102 87.9571C252.213 87.8906 252.294 87.7896 252.336 87.6689L254.361 81.7519C254.41 81.6091 254.398 81.4539 254.326 81.3233C254.255 81.1903 254.134 81.0942 253.989 81.0548L226.562 73.6697C225.404 73.3962 224.227 73.5884 223.229 74.2116C222.234 74.8324 221.542 75.8054 221.28 76.9509C221.276 76.9706 221.273 76.9903 221.271 77.01L220.091 87.3881C219.837 88.536 220.049 89.7111 220.689 90.6989C221.332 91.6941 222.325 92.3715 223.483 92.608C226.074 93.1351 228.602 93.3544 231.013 93.3544L231.018 93.3519ZM251.378 87.1245C249.821 87.9941 237.718 94.3964 223.702 91.5463C222.83 91.3689 222.084 90.859 221.601 90.1101C221.115 89.3588 220.958 88.4646 221.155 87.595C221.16 87.5753 221.162 87.5556 221.165 87.5359L222.345 77.1578C222.544 76.3079 223.061 75.5886 223.803 75.1255C224.552 74.6575 225.439 74.5121 226.298 74.7166L253.149 81.9466L251.378 87.1245Z" fill="#031339"></path><path d="M239.272 88.6274C239.41 88.6274 239.548 88.5757 239.654 88.4698C239.865 88.2579 239.865 87.9155 239.654 87.7037L234.739 82.7893C234.527 82.5774 234.185 82.5774 233.973 82.7893C233.761 83.0011 233.761 83.3435 233.973 83.5554L238.888 88.4698C238.993 88.5757 239.131 88.6274 239.269 88.6274H239.272Z" fill="#031339"></path><path d="M231.936 87.6741C232.074 87.6741 232.212 87.6224 232.318 87.5164C232.53 87.3046 232.53 86.9622 232.318 86.7503L224.957 79.3923C224.745 79.1804 224.403 79.1804 224.191 79.3923C223.979 79.6041 223.979 79.9466 224.191 80.1584L231.549 87.5164C231.655 87.6224 231.793 87.6741 231.931 87.6741H231.936Z" fill="#031339"></path><path d="M322.884 385.006H322.899C339.815 384.555 350.568 380.109 354.861 371.788L447.685 191.847C447.823 191.581 447.717 191.255 447.454 191.118C447.188 190.98 446.863 191.085 446.725 191.349C441.655 201.178 426.51 205.42 402.931 203.617C379.731 201.84 349.979 194.364 316.886 181.998C310.178 179.49 302.645 182.402 299.362 188.765L219.108 344.333C217.248 347.937 217.026 352.174 218.5 355.956C219.975 359.742 223.01 362.717 226.828 364.117C236.416 367.632 245.855 370.775 254.883 373.458C255.169 373.544 255.47 373.379 255.556 373.093C255.642 372.807 255.477 372.504 255.191 372.421C246.185 369.743 236.768 366.61 227.203 363.102C223.678 361.808 220.872 359.062 219.51 355.564C218.15 352.073 218.354 348.161 220.071 344.831L300.325 189.263C303.357 183.385 310.314 180.697 316.509 183.013C355.652 197.643 389.144 205.1 412.748 205.102C427.166 205.102 437.894 202.321 443.971 196.692L353.9 371.292C349.861 379.123 339.13 383.493 322.872 383.925C322.574 383.932 322.337 384.181 322.345 384.479C322.352 384.772 322.594 385.006 322.884 385.006Z" fill="#031339"></path><path d="M277.865 379.498C278.112 379.498 278.336 379.328 278.393 379.076C278.459 378.786 278.277 378.495 277.986 378.428C270.736 376.783 263.068 374.761 255.195 372.42C254.909 372.334 254.609 372.499 254.523 372.785C254.436 373.071 254.601 373.374 254.887 373.457C262.782 375.805 270.473 377.832 277.745 379.483C277.784 379.493 277.826 379.498 277.865 379.498Z" fill="white"></path><path d="M306.382 384.314C306.658 384.314 306.892 384.104 306.919 383.826C306.949 383.528 306.732 383.264 306.434 383.235C297.822 382.377 288.252 380.762 277.982 378.429C277.689 378.362 277.401 378.545 277.334 378.835C277.268 379.126 277.45 379.417 277.741 379.483C288.052 381.826 297.669 383.449 306.326 384.309C306.343 384.309 306.362 384.311 306.38 384.311L306.382 384.314Z" fill="#031339"></path><path d="M320.101 385.043C321.049 385.043 321.981 385.03 322.895 385.006C323.193 384.998 323.429 384.75 323.422 384.452C323.414 384.153 323.166 383.914 322.867 383.924C317.891 384.057 312.364 383.823 306.432 383.235C306.134 383.205 305.87 383.422 305.841 383.72C305.811 384.018 306.028 384.282 306.326 384.311C311.216 384.796 315.837 385.043 320.104 385.043H320.101Z" fill="white"></path><path d="M172.455 339.419C177.606 339.419 182.597 336.616 185.095 331.775C185.233 331.509 185.127 331.184 184.861 331.046C184.597 330.908 184.27 331.014 184.132 331.277C180.885 337.574 173.064 340.136 166.706 336.995C163.188 335.256 159.631 333.46 156.133 331.657C110.014 307.866 69.3268 280.333 41.5673 254.13C13.9629 228.073 2.47131 206.533 9.20612 193.477L99.2616 18.9064C97.4781 32.5214 109.403 52.0903 133.65 74.9774C161.481 101.247 202.255 128.844 248.462 152.679C251.844 154.423 255.281 156.16 258.673 157.84C261.831 159.404 264.176 162.109 265.277 165.459C266.381 168.817 266.095 172.393 264.474 175.534L237.958 226.937C237.821 227.203 237.926 227.528 238.19 227.666C238.456 227.804 238.781 227.698 238.919 227.435L265.435 176.032C267.189 172.63 267.499 168.757 266.304 165.122C265.112 161.493 262.572 158.564 259.151 156.872C255.764 155.197 252.335 153.462 248.955 151.721C202.836 127.93 162.149 100.397 134.389 74.1941C106.807 48.1564 95.3079 26.6291 102.013 13.5708L102.028 13.5413C102.166 13.2752 102.06 12.95 101.794 12.8121C101.53 12.6742 101.203 12.7801 101.065 13.0437L8.24051 192.985C1.26428 206.508 12.8347 228.504 40.8209 254.921C68.6519 281.19 109.425 308.787 155.633 332.622C159.136 334.431 162.7 336.229 166.223 337.97C168.218 338.956 170.347 339.424 172.45 339.424L172.455 339.419Z" fill="#031339"></path><path d="M184.614 332.068C184.811 332.068 184.998 331.963 185.095 331.775L203.252 296.576C203.39 296.31 203.284 295.985 203.018 295.847C202.752 295.709 202.427 295.815 202.289 296.079L184.131 331.278C183.993 331.544 184.099 331.869 184.365 332.007C184.444 332.049 184.528 332.068 184.612 332.068H184.614Z" fill="white"></path><path d="M202.769 296.869C202.966 296.869 203.153 296.763 203.249 296.576L210.975 281.601C211.113 281.335 211.007 281.01 210.741 280.872C210.477 280.734 210.149 280.84 210.011 281.104L202.286 296.078C202.148 296.345 202.254 296.67 202.52 296.808C202.599 296.849 202.683 296.867 202.767 296.867L202.769 296.869Z" fill="#031339"></path><path d="M210.499 281.892C210.696 281.892 210.883 281.786 210.979 281.599L238.924 227.43C239.062 227.164 238.956 226.839 238.692 226.701C238.429 226.563 238.101 226.669 237.963 226.932L210.019 281.102C209.881 281.368 209.987 281.693 210.253 281.831C210.332 281.873 210.415 281.892 210.499 281.892Z" fill="white"></path><path d="M238.107 175.5C238.304 175.5 238.492 175.394 238.588 175.206C238.726 174.94 238.62 174.615 238.356 174.477C165.212 136.744 106.668 89.686 92.6757 57.3791C92.5575 57.1056 92.2422 56.9776 91.9638 57.0983C91.6904 57.2165 91.5647 57.5343 91.683 57.8102C105.766 90.329 164.512 137.601 237.861 175.44C237.94 175.482 238.026 175.5 238.107 175.5Z" fill="#031339"></path><path d="M229.283 194.177C229.48 194.177 229.668 194.071 229.764 193.884C229.902 193.618 229.796 193.292 229.532 193.155C156.388 155.421 97.8409 108.363 83.849 76.0563C83.7308 75.7829 83.413 75.6548 83.1371 75.7755C82.8637 75.8937 82.7381 76.2115 82.8563 76.4874C96.9393 109.006 155.685 156.278 229.034 194.118C229.113 194.16 229.199 194.179 229.281 194.179L229.283 194.177Z" fill="#031339"></path><path d="M197.049 200.19C197.238 200.19 197.421 200.092 197.519 199.917C197.667 199.655 197.576 199.325 197.315 199.18C179.051 188.829 161.899 177.956 146.33 166.863C146.087 166.691 145.749 166.747 145.577 166.989C145.404 167.233 145.461 167.57 145.702 167.743C161.3 178.857 178.487 189.75 196.78 200.121C196.864 200.168 196.955 200.193 197.046 200.193L197.049 200.19Z" fill="#031339"></path><path d="M133.411 158.544C133.573 158.544 133.733 158.47 133.842 158.332C134.024 158.096 133.977 157.756 133.741 157.574C103.375 134.359 82.5251 112.041 75.0291 94.7335C74.9108 94.4601 74.5906 94.3344 74.3171 94.4527C74.0437 94.5709 73.9181 94.8912 74.0363 95.1646C81.6037 112.64 102.574 135.11 133.083 158.436C133.182 158.51 133.297 158.547 133.411 158.547V158.544Z" fill="#031339"></path><path d="M165.145 205.136C165.325 205.136 165.502 205.045 165.606 204.882C165.763 204.629 165.687 204.296 165.433 204.136C147.29 192.81 130.798 181.178 116.412 169.568C116.178 169.381 115.838 169.417 115.651 169.649C115.464 169.881 115.501 170.223 115.732 170.41C130.15 182.047 146.68 193.704 164.859 205.052C164.948 205.109 165.046 205.134 165.145 205.134V205.136Z" fill="#031339"></path><path d="M106.184 162.264C106.335 162.264 106.485 162.2 106.593 162.077C106.79 161.85 106.766 161.51 106.539 161.313C86.0022 143.484 72.0546 126.917 66.2042 113.406C66.0859 113.133 65.7706 113.004 65.4923 113.125C65.2188 113.243 65.0932 113.564 65.2114 113.837C71.126 127.494 85.172 144.195 105.83 162.131C105.931 162.22 106.059 162.264 106.184 162.264Z" fill="#031339"></path><path d="M193.994 268.881C194.191 268.881 194.378 268.775 194.475 268.588C194.612 268.322 194.507 267.996 194.24 267.858C190.903 266.137 187.533 264.363 184.222 262.584C183.958 262.444 183.631 262.543 183.49 262.806C183.35 263.07 183.449 263.397 183.712 263.538C187.028 265.319 190.403 267.095 193.745 268.819C193.824 268.861 193.908 268.878 193.992 268.878L193.994 268.881Z" fill="#031339"></path><path d="M183.97 263.602C184.162 263.602 184.349 263.498 184.448 263.316C184.588 263.052 184.49 262.725 184.226 262.584C173.594 256.877 163.145 250.893 153.161 244.804C152.907 244.649 152.574 244.73 152.417 244.984C152.262 245.24 152.343 245.572 152.597 245.728C162.595 251.827 173.065 257.82 183.714 263.538C183.795 263.582 183.884 263.602 183.97 263.602Z" fill="white"></path><path d="M152.876 245.807C153.058 245.807 153.236 245.715 153.339 245.548C153.494 245.292 153.413 244.959 153.159 244.804C126.548 228.57 102.826 211.288 84.5573 194.827C66.4171 178.483 53.9698 163.245 48.5627 150.758C48.4445 150.484 48.1267 150.359 47.8508 150.477C47.5773 150.595 47.4517 150.916 47.57 151.189C58.7979 177.116 98.059 212.458 152.598 245.728C152.686 245.782 152.782 245.807 152.879 245.807H152.876Z" fill="#031339"></path><path d="M185.17 287.555C185.367 287.555 185.554 287.449 185.65 287.262C185.788 286.996 185.682 286.671 185.416 286.533C173.88 280.581 162.519 274.305 151.646 267.873C151.39 267.72 151.057 267.806 150.905 268.063C150.752 268.319 150.838 268.651 151.094 268.804C161.985 275.246 173.366 281.535 184.919 287.496C184.998 287.538 185.081 287.558 185.165 287.558L185.17 287.555Z" fill="white"></path><path d="M151.373 268.881C151.558 268.881 151.738 268.785 151.839 268.615C151.991 268.359 151.905 268.026 151.649 267.873C94.1984 233.889 51.3163 196.17 39.736 169.435C39.6178 169.162 39.3025 169.033 39.0241 169.154C38.7507 169.272 38.6251 169.593 38.7433 169.866C50.4073 196.8 93.4594 234.712 151.097 268.807C151.183 268.859 151.279 268.883 151.373 268.883V268.881Z" fill="#031339"></path><path d="M176.346 306.233C176.543 306.233 176.73 306.127 176.826 305.939C176.964 305.673 176.858 305.348 176.592 305.21C169.845 301.73 163.113 298.113 156.58 294.46C156.319 294.315 155.989 294.408 155.843 294.667C155.698 294.928 155.792 295.258 156.05 295.404C162.593 299.062 169.338 302.683 176.095 306.171C176.173 306.213 176.257 306.233 176.341 306.233H176.346Z" fill="#031339"></path><path d="M156.318 295.475C156.508 295.475 156.692 295.374 156.791 295.199C156.936 294.938 156.843 294.608 156.584 294.462C92.7731 258.788 43.4443 217.044 30.9132 188.112C30.795 187.838 30.4747 187.713 30.2013 187.831C29.9279 187.949 29.8023 188.27 29.9205 188.543C36.1011 202.813 51.066 220.303 73.1992 239.121C95.5887 258.157 124.24 277.62 156.057 295.408C156.141 295.455 156.232 295.477 156.32 295.477L156.318 295.475Z" fill="#031339"></path><path d="M113.083 347.407C113.266 347.407 113.446 347.314 113.547 347.146C113.702 346.89 113.62 346.558 113.364 346.402C111.507 345.274 109.664 344.144 107.839 343.013C107.585 342.855 107.253 342.934 107.095 343.188C106.937 343.441 107.016 343.774 107.27 343.932C109.098 345.065 110.943 346.196 112.803 347.326C112.891 347.38 112.987 347.405 113.083 347.405V347.407ZM102.055 340.572C102.235 340.572 102.41 340.483 102.513 340.32C102.673 340.069 102.599 339.734 102.346 339.574C100.508 338.409 98.6876 337.246 96.8868 336.078C96.6356 335.916 96.3006 335.987 96.138 336.239C95.9754 336.49 96.0468 336.825 96.2981 336.987C98.1013 338.155 99.9241 339.323 101.764 340.488C101.853 340.545 101.954 340.572 102.052 340.572H102.055ZM91.1645 333.522C91.3394 333.522 91.5118 333.435 91.6152 333.28C91.7803 333.031 91.7113 332.696 91.4625 332.531C89.647 331.329 87.8512 330.127 86.0776 328.925C85.8313 328.757 85.4938 328.821 85.3263 329.07C85.1588 329.317 85.2228 329.654 85.4716 329.822C87.2477 331.026 89.046 332.231 90.8664 333.435C90.9575 333.497 91.061 333.526 91.1645 333.526V333.522ZM80.4242 326.24C80.5942 326.24 80.7642 326.159 80.8701 326.008C81.0401 325.762 80.9785 325.427 80.7346 325.255C78.961 324.023 77.1751 322.769 75.4285 321.525C75.1847 321.353 74.8472 321.409 74.6747 321.653C74.5023 321.897 74.559 322.234 74.8004 322.407C76.5493 323.653 78.3377 324.91 80.1163 326.144C80.2099 326.208 80.3183 326.24 80.4242 326.24ZM69.849 318.709C70.0165 318.709 70.1791 318.633 70.2875 318.488C70.4624 318.246 70.4106 317.909 70.1692 317.731C68.4079 316.443 66.6565 315.145 64.9593 313.871C64.7203 313.691 64.3804 313.741 64.2005 313.98C64.0207 314.219 64.07 314.559 64.3089 314.736C66.0086 316.012 67.765 317.315 69.5312 318.603C69.6273 318.675 69.7382 318.707 69.849 318.707V318.709Z" fill="#031339"></path><path d="M64.6339 314.844C64.799 314.844 64.9615 314.77 65.0675 314.628C65.2473 314.389 65.198 314.049 64.9591 313.871L64.8285 313.773C64.5896 313.593 64.2496 313.642 64.0723 313.881C63.8924 314.12 63.9417 314.46 64.1807 314.637L64.3112 314.736C64.4073 314.81 64.5231 314.844 64.6339 314.844ZM59.3426 310.812C59.5052 310.812 59.6653 310.74 59.7712 310.602C59.9535 310.366 59.9116 310.026 59.6752 309.844C57.9607 308.516 56.2462 307.169 54.576 305.838C54.342 305.651 54.0021 305.691 53.8149 305.925C53.6276 306.159 53.667 306.499 53.9011 306.686C55.5737 308.021 57.2931 309.371 59.0125 310.701C59.1111 310.777 59.2268 310.814 59.3426 310.814V310.812Z" fill="white"></path><path d="M50.0366 303.405C50.1918 303.405 50.3495 303.338 50.4554 303.207C50.6451 302.976 50.6106 302.636 50.3815 302.446C48.6818 301.052 47.0067 299.655 45.4055 298.293C45.1764 298.098 44.8365 298.128 44.6419 298.355C44.4497 298.581 44.4768 298.924 44.7035 299.118C46.312 300.483 47.9896 301.885 49.6942 303.281C49.7952 303.365 49.9159 303.405 50.0366 303.405Z" fill="#031339"></path><path d="M40.6856 295.475C40.8359 295.475 40.9862 295.414 41.0921 295.291C41.2892 295.066 41.267 294.724 41.0428 294.527C39.3998 293.083 37.7764 291.63 36.2171 290.204C35.9979 290.002 35.6555 290.016 35.4535 290.238C35.2515 290.457 35.2687 290.8 35.488 291.002C37.0522 292.433 38.6829 293.894 40.3309 295.34C40.4344 295.431 40.56 295.475 40.6881 295.475H40.6856Z" fill="white"></path><path d="M35.8542 291.144C35.9995 291.144 36.1473 291.085 36.2532 290.97C36.4552 290.75 36.438 290.408 36.2187 290.206C35.1619 289.238 34.1224 288.275 33.1026 287.314C32.8858 287.11 32.5434 287.119 32.3389 287.336C32.1345 287.553 32.1443 287.895 32.3611 288.1C33.3834 289.063 34.4279 290.031 35.4896 291.002C35.593 291.098 35.7236 291.144 35.8542 291.144ZM28.0601 283.742C28.2005 283.742 28.3385 283.688 28.4444 283.582C28.6538 283.37 28.6538 283.028 28.4395 282.816C26.8826 281.279 25.3529 279.727 23.8946 278.202C23.6876 277.985 23.3452 277.98 23.1309 278.185C22.9141 278.392 22.9067 278.734 23.1136 278.948C24.5793 280.478 26.1165 282.04 27.6783 283.584C27.7842 283.688 27.9221 283.74 28.0576 283.74L28.0601 283.742ZM19.0861 274.362C19.2142 274.362 19.3447 274.315 19.4482 274.224C19.6699 274.024 19.6896 273.682 19.4876 273.46C18.0145 271.822 16.5882 270.179 15.2457 268.573C15.0536 268.344 14.7136 268.312 14.4845 268.504C14.2554 268.696 14.2259 269.036 14.4156 269.265C15.7655 270.881 17.2016 272.534 18.6845 274.182C18.7905 274.3 18.9383 274.362 19.0861 274.362ZM10.7723 264.395C10.888 264.395 11.0013 264.358 11.0998 264.284C11.3363 264.102 11.3832 263.762 11.2009 263.525C9.85096 261.762 8.5749 260.003 7.40481 258.296C7.23483 258.049 6.89986 257.985 6.65353 258.155C6.40719 258.325 6.34559 258.66 6.5131 258.906C7.69305 260.628 8.9814 262.402 10.3436 264.181C10.4496 264.319 10.6121 264.392 10.7747 264.392L10.7723 264.395ZM3.4585 253.677C3.55211 253.677 3.64821 253.652 3.73443 253.6C3.99062 253.448 4.07684 253.115 3.92411 252.859C2.78111 250.935 1.75144 249.028 0.859707 247.191C0.729149 246.922 0.406406 246.809 0.137901 246.94C-0.130604 247.07 -0.243923 247.393 -0.113365 247.661C0.790688 249.526 1.83764 251.46 2.99542 253.408C3.09642 253.578 3.27622 253.674 3.46097 253.674L3.4585 253.677Z" fill="#031339"></path><path d="M396.049 446.996C397.833 446.996 399.601 446.967 401.299 446.91C401.597 446.9 401.831 446.649 401.821 446.351C401.811 446.053 401.565 445.821 401.262 445.829C399.178 445.898 397.005 445.925 394.793 445.91C394.505 445.895 394.251 446.149 394.248 446.447C394.248 446.745 394.487 446.989 394.785 446.991C395.209 446.994 395.628 446.996 396.047 446.996H396.049ZM388.302 446.829C388.59 446.829 388.829 446.602 388.841 446.311C388.854 446.013 388.622 445.76 388.324 445.747C386.228 445.659 384.053 445.533 381.86 445.375C381.56 445.353 381.304 445.577 381.281 445.875C381.259 446.173 381.483 446.432 381.781 446.454C383.984 446.614 386.171 446.738 388.277 446.826C388.285 446.826 388.292 446.826 388.299 446.826L388.302 446.829ZM407.762 446.54C407.777 446.54 407.792 446.54 407.807 446.54C410.046 446.356 412.226 446.109 414.288 445.811C414.583 445.769 414.788 445.494 414.746 445.198C414.704 444.902 414.428 444.698 414.133 444.74C412.093 445.035 409.933 445.277 407.716 445.462C407.418 445.486 407.196 445.747 407.22 446.045C407.245 446.329 407.482 446.54 407.76 446.54H407.762ZM375.354 445.903C375.63 445.903 375.864 445.693 375.892 445.415C375.921 445.117 375.704 444.853 375.406 444.824C373.312 444.617 371.145 444.378 368.967 444.112C368.671 444.077 368.4 444.287 368.363 444.582C368.327 444.878 368.538 445.149 368.834 445.186C371.021 445.454 373.197 445.693 375.3 445.9C375.318 445.9 375.337 445.903 375.354 445.903ZM420.594 444.649C420.633 444.649 420.673 444.644 420.712 444.636C422.937 444.136 425.06 443.55 427.018 442.892C427.302 442.796 427.455 442.491 427.358 442.207C427.262 441.924 426.954 441.771 426.674 441.868C424.75 442.513 422.663 443.089 420.473 443.582C420.183 443.649 419.998 443.937 420.064 444.227C420.121 444.479 420.345 444.651 420.592 444.651L420.594 444.649ZM362.466 444.331C362.732 444.331 362.961 444.136 363.001 443.868C363.043 443.572 362.838 443.299 362.543 443.254C360.444 442.954 358.288 442.621 356.135 442.269C355.842 442.22 355.564 442.422 355.515 442.715C355.465 443.01 355.667 443.289 355.96 443.336C358.118 443.688 360.281 444.02 362.387 444.323C362.414 444.328 362.439 444.328 362.464 444.328L362.466 444.331ZM349.652 442.242C349.908 442.242 350.137 442.06 350.184 441.799C350.238 441.505 350.041 441.222 349.748 441.17C347.654 440.791 345.513 440.385 343.378 439.961C343.087 439.904 342.799 440.094 342.742 440.387C342.685 440.68 342.875 440.963 343.168 441.023C345.306 441.446 347.457 441.855 349.556 442.235C349.588 442.239 349.62 442.244 349.652 442.244V442.242ZM432.844 440.454C432.926 440.454 433.007 440.434 433.086 440.397C435.155 439.36 437.035 438.19 438.673 436.916C438.909 436.734 438.951 436.394 438.769 436.157C438.586 435.921 438.246 435.879 438.01 436.061C436.429 437.291 434.608 438.424 432.6 439.429C432.334 439.562 432.226 439.887 432.359 440.155C432.453 440.345 432.645 440.454 432.844 440.454ZM336.914 439.722C337.163 439.722 337.387 439.547 337.443 439.293C337.505 439 337.32 438.714 337.027 438.65C334.948 438.207 332.817 437.734 330.696 437.251C330.406 437.185 330.115 437.367 330.048 437.658C329.982 437.948 330.164 438.239 330.455 438.306C332.581 438.791 334.716 439.264 336.8 439.71C336.837 439.717 336.877 439.722 336.914 439.722ZM324.257 436.832C324.501 436.832 324.723 436.667 324.782 436.419C324.853 436.128 324.673 435.835 324.383 435.766C322.311 435.263 320.193 434.736 318.089 434.199C317.798 434.125 317.505 434.3 317.431 434.588C317.357 434.879 317.532 435.172 317.82 435.246C319.929 435.786 322.05 436.313 324.126 436.818C324.168 436.827 324.213 436.832 324.255 436.832H324.257ZM311.679 433.618C311.918 433.618 312.137 433.458 312.201 433.216C312.278 432.928 312.108 432.63 311.82 432.554C309.758 431.999 307.652 431.423 305.565 430.837C305.277 430.758 304.979 430.923 304.898 431.211C304.816 431.499 304.984 431.797 305.272 431.879C307.363 432.465 309.472 433.044 311.539 433.598C311.586 433.61 311.632 433.618 311.679 433.618ZM442.902 432.448C443.067 432.448 443.23 432.374 443.336 432.231C444.255 431.009 445.04 429.699 445.676 428.334C445.969 427.701 446.235 427.048 446.467 426.388C446.565 426.107 446.417 425.797 446.134 425.698C445.853 425.6 445.543 425.747 445.444 426.031C445.225 426.656 444.974 427.277 444.693 427.878C444.09 429.174 443.343 430.42 442.469 431.581C442.289 431.819 442.338 432.159 442.577 432.337C442.676 432.411 442.789 432.445 442.902 432.445V432.448ZM299.178 430.112C299.412 430.112 299.628 429.96 299.697 429.723C299.781 429.437 299.616 429.137 299.33 429.053C297.271 428.452 295.199 427.834 293.115 427.201C292.832 427.114 292.527 427.275 292.44 427.56C292.354 427.846 292.514 428.149 292.8 428.235C294.889 428.868 296.963 429.489 299.027 430.09C299.079 430.105 299.128 430.112 299.18 430.112H299.178ZM286.755 426.341C286.984 426.341 287.198 426.193 287.27 425.962C287.358 425.676 287.201 425.373 286.915 425.284C284.865 424.639 282.806 423.981 280.737 423.309C280.454 423.217 280.148 423.373 280.055 423.656C279.963 423.939 280.119 424.245 280.402 424.338C282.476 425.013 284.538 425.673 286.59 426.319C286.644 426.336 286.698 426.343 286.752 426.343L286.755 426.341ZM274.409 422.326C274.635 422.326 274.845 422.183 274.921 421.956C275.017 421.673 274.864 421.367 274.581 421.271C272.544 420.587 270.497 419.889 268.44 419.18C268.159 419.081 267.849 419.232 267.753 419.515C267.654 419.798 267.804 420.106 268.088 420.202C270.147 420.914 272.196 421.614 274.236 422.299C274.293 422.318 274.352 422.326 274.409 422.326ZM447.176 420.402C447.462 420.402 447.701 420.178 447.716 419.887C447.738 419.448 447.75 419.003 447.75 418.557C447.75 416.877 447.592 415.113 447.28 413.31C447.228 413.017 446.95 412.817 446.654 412.869C446.358 412.921 446.161 413.199 446.213 413.495C446.514 415.236 446.666 416.938 446.666 418.557C446.666 418.985 446.656 419.412 446.634 419.833C446.619 420.131 446.849 420.385 447.147 420.399C447.156 420.399 447.166 420.399 447.174 420.399L447.176 420.402ZM445.109 407.674C445.169 407.674 445.228 407.664 445.284 407.644C445.568 407.548 445.718 407.24 445.619 406.957C444.949 405.003 444.109 402.966 443.126 400.902C442.998 400.631 442.676 400.518 442.405 400.646C442.136 400.774 442.02 401.096 442.148 401.367C443.114 403.395 443.939 405.393 444.595 407.307C444.671 407.531 444.88 407.671 445.107 407.671L445.109 407.674ZM439.587 395.951C439.68 395.951 439.774 395.926 439.86 395.877C440.119 395.726 440.205 395.394 440.052 395.135C439 393.342 437.825 391.487 436.557 389.625C436.389 389.378 436.052 389.314 435.805 389.482C435.559 389.649 435.495 389.987 435.662 390.233C436.916 392.078 438.079 393.911 439.119 395.684C439.22 395.857 439.399 395.953 439.587 395.953V395.951ZM432.317 385.203C432.43 385.203 432.546 385.166 432.645 385.092C432.884 384.912 432.928 384.572 432.748 384.333C431.48 382.666 430.115 380.951 428.691 379.237C428.499 379.008 428.159 378.976 427.93 379.168C427.701 379.36 427.669 379.7 427.859 379.929C429.272 381.629 430.627 383.331 431.889 384.989C431.994 385.129 432.157 385.203 432.32 385.203H432.317ZM424.03 375.214C424.159 375.214 424.287 375.17 424.39 375.076C424.612 374.877 424.632 374.534 424.432 374.312C423.025 372.741 421.538 371.135 420.013 369.536C419.806 369.319 419.463 369.312 419.247 369.519C419.03 369.726 419.022 370.068 419.229 370.282C420.747 371.874 422.227 373.472 423.626 375.034C423.732 375.152 423.88 375.214 424.03 375.214ZM415.076 365.816C415.217 365.816 415.354 365.762 415.46 365.656C415.67 365.444 415.67 365.102 415.458 364.89C413.955 363.397 412.381 361.877 410.783 360.367C410.566 360.163 410.223 360.17 410.019 360.39C409.814 360.606 409.824 360.949 410.041 361.153C411.632 362.656 413.199 364.173 414.697 365.659C414.803 365.762 414.941 365.816 415.079 365.816H415.076ZM405.641 356.896C405.789 356.896 405.937 356.837 406.043 356.719C406.243 356.497 406.225 356.155 406.004 355.955C404.425 354.529 402.789 353.078 401.136 351.642C400.909 351.445 400.569 351.47 400.372 351.696C400.175 351.923 400.2 352.263 400.427 352.46C402.072 353.889 403.705 355.335 405.277 356.758C405.38 356.852 405.511 356.899 405.639 356.899L405.641 356.896ZM395.842 348.378C395.997 348.378 396.15 348.312 396.256 348.184C396.448 347.954 396.419 347.612 396.19 347.422C395.187 346.582 394.17 345.74 393.142 344.895C392.911 344.705 392.571 344.74 392.381 344.971C392.192 345.203 392.226 345.543 392.458 345.733C393.485 346.575 394.497 347.413 395.497 348.253C395.598 348.336 395.722 348.378 395.845 348.378H395.842Z" fill="#031339"></path><path d="M346.553 36.9386C351.044 29.0755 360.915 26.457 368.423 31.231C375.744 35.8867 377.961 45.6441 373.441 53.2928C371.263 56.9805 367.918 59.498 364.169 60.577C361.292 61.4047 358.823 63.3359 357.306 65.9914L356.404 67.568C355.66 68.8711 354.037 69.3194 352.778 68.5681L343.597 63.0847C342.339 62.3333 341.925 60.6681 342.669 59.365L343.565 57.7958C345.061 55.1773 345.563 52.0611 344.836 49.1421C343.844 45.1563 344.356 40.7888 346.553 36.9411V36.9386Z" fill="#031339"></path><path d="M342.723 75.3642C345.856 77.2363 349.899 76.1204 351.754 72.8712L353.934 69.053L342.587 62.2788L340.407 66.097C338.552 69.3437 339.589 73.4945 342.72 75.3642H342.723Z" fill="white"></path><path d="M345.993 76.8129C346.587 76.8129 347.185 76.7365 347.777 76.5813C349.659 76.0862 351.24 74.8643 352.225 73.14L354.405 69.3218C354.551 69.0656 354.467 68.7404 354.213 68.5902L342.867 61.8159C342.741 61.742 342.594 61.7199 342.453 61.7568C342.313 61.7938 342.192 61.8849 342.121 62.0105L339.941 65.8287C337.943 69.3242 339.069 73.81 342.446 75.83C343.537 76.4828 344.756 76.8153 345.993 76.8153V76.8129ZM353.201 69.2454L351.284 72.603C350.444 74.0736 349.102 75.1156 347.501 75.5344C345.961 75.9384 344.362 75.7117 343 74.8988C340.123 73.1819 339.172 69.3513 340.879 66.3633L342.786 63.0254L353.201 69.2454Z" fill="#031339"></path><path d="M373.602 21.311C373.789 21.311 373.971 21.2125 374.072 21.0401L382.026 7.16398C382.174 6.90533 382.085 6.57524 381.827 6.42497C381.568 6.27717 381.238 6.36585 381.088 6.62451L373.133 20.5006C372.986 20.7593 373.074 21.0893 373.333 21.2396C373.417 21.2889 373.51 21.311 373.602 21.311Z" fill="#031339"></path><path d="M399.864 72.7902C400.051 72.7902 400.234 72.6916 400.335 72.5167C400.482 72.2581 400.394 71.928 400.135 71.7777L382.054 61.4242C381.793 61.2764 381.465 61.3651 381.315 61.6238C381.167 61.8824 381.256 62.2125 381.515 62.3628L399.596 72.7163C399.679 72.7655 399.773 72.7877 399.864 72.7877V72.7902Z" fill="#031339"></path><path d="M335.201 36.2559C335.391 36.2559 335.575 36.1549 335.674 35.9775C335.819 35.7164 335.726 35.3863 335.465 35.241L316.765 24.8111C316.504 24.6658 316.174 24.7594 316.029 25.0205C315.883 25.2816 315.977 25.6117 316.238 25.7571L334.937 36.1869C335.021 36.2337 335.112 36.2559 335.201 36.2559Z" fill="#031339"></path><path d="M387.023 41.1433C387.072 41.1433 387.121 41.1359 387.17 41.1236L404.761 36.1624C405.049 36.0811 405.217 35.783 405.136 35.4948C405.054 35.2066 404.756 35.0391 404.468 35.1204L386.877 40.0816C386.589 40.1629 386.422 40.4609 386.503 40.7491C386.569 40.9881 386.786 41.1433 387.023 41.1433Z" fill="#031339"></path><path d="M350.247 21.2517C350.294 21.2517 350.343 21.2443 350.393 21.232C350.681 21.1532 350.848 20.8551 350.77 20.5669L345.638 1.97839C345.56 1.69018 345.262 1.52267 344.973 1.6015C344.685 1.68033 344.518 1.9784 344.596 2.26661L349.728 20.8551C349.794 21.0941 350.011 21.2517 350.25 21.2517H350.247Z" fill="#031339"></path><path d="M32.7117 83.7148C32.8423 83.7148 32.9729 83.668 33.0763 83.5744C33.298 83.3724 33.3128 83.03 33.1108 82.8107C32.4285 82.0619 31.7559 81.318 31.0958 80.5765C30.8987 80.3523 30.5563 80.3326 30.3321 80.5321C30.108 80.7317 30.0883 81.0716 30.2878 81.2958C30.9505 82.0422 31.6254 82.791 32.3127 83.5424C32.4186 83.6581 32.5664 83.7197 32.7117 83.7197V83.7148ZM26.4523 76.5612C26.5755 76.5612 26.6987 76.5193 26.7997 76.4356C27.0287 76.2434 27.0583 75.9035 26.8686 75.6744C25.4547 73.9845 24.085 72.2897 22.8016 70.6393C22.6169 70.4028 22.2794 70.3609 22.043 70.5432C21.8065 70.7255 21.7646 71.0655 21.9493 71.3019C23.2401 72.9622 24.6172 74.6669 26.0385 76.3666C26.1469 76.4947 26.2996 76.5612 26.4548 76.5612H26.4523ZM18.4957 66.3062C18.6041 66.3062 18.7149 66.2742 18.8085 66.2052C19.0524 66.0328 19.1091 65.6953 18.9342 65.4515C17.6483 63.6458 16.4289 61.8451 15.313 60.0986C15.1505 59.8473 14.8179 59.7734 14.5666 59.9335C14.3154 60.0937 14.2415 60.4287 14.4016 60.6799C15.5274 62.4412 16.7565 64.2592 18.0523 66.0796C18.1582 66.2274 18.3232 66.3062 18.4932 66.3062H18.4957ZM11.5293 55.3591C11.618 55.3591 11.7067 55.3369 11.7904 55.2901C12.0516 55.1448 12.1477 54.8171 12.0023 54.5536C10.9184 52.5977 9.94048 50.6615 9.09801 48.7992C8.97484 48.5282 8.65462 48.405 8.3812 48.5307C8.11021 48.6538 7.9895 48.9741 8.11266 49.2475C8.96745 51.1344 9.96017 53.0977 11.0564 55.0783C11.1549 55.2556 11.3396 55.3566 11.5293 55.3566V55.3591ZM6.22816 43.53C6.28482 43.53 6.34152 43.5202 6.39818 43.5029C6.68146 43.4093 6.83662 43.1039 6.74303 42.8206C6.03604 40.6824 5.50397 38.5959 5.1591 36.6154C5.10738 36.3223 4.83147 36.1252 4.5334 36.1744C4.24026 36.2262 4.04318 36.507 4.09245 36.8001C4.44717 38.8324 4.99159 40.9731 5.71582 43.1605C5.78972 43.3872 6.00153 43.5325 6.22816 43.5325V43.53ZM4.13676 30.7896C4.42744 30.7896 4.66644 30.558 4.67628 30.2673C4.7502 28.07 5.09505 25.9712 5.70842 24.0301C5.7971 23.7443 5.63947 23.4414 5.35619 23.3502C5.07289 23.2591 4.76744 23.4192 4.67628 23.7025C4.03336 25.7372 3.66875 27.9345 3.59485 30.2304C3.58499 30.5284 3.81903 30.7797 4.11711 30.7896C4.1245 30.7896 4.12938 30.7896 4.13431 30.7896H4.13676ZM138.673 21.0248C138.905 21.0248 139.119 20.877 139.19 20.643C139.279 20.3572 139.119 20.0542 138.833 19.9656C136.762 19.3251 134.67 18.692 132.616 18.0835C132.327 17.9973 132.029 18.1624 131.943 18.4481C131.859 18.7339 132.022 19.0344 132.308 19.1206C134.36 19.7291 136.449 20.3597 138.515 21.0002C138.57 21.0174 138.624 21.0248 138.676 21.0248H138.673ZM8.05602 18.6132C8.22598 18.6132 8.39351 18.5343 8.49942 18.3841C9.67445 16.7139 11.1352 15.1719 12.8423 13.7973C13.0763 13.6101 13.1108 13.2701 12.9236 13.0361C12.7364 12.8046 12.3964 12.7652 12.1624 12.9548C10.3789 14.391 8.8492 16.0094 7.61507 17.7608C7.44263 18.0047 7.50175 18.3422 7.74562 18.5146C7.83923 18.5811 7.94762 18.6132 8.05602 18.6132ZM126.223 17.3396C126.46 17.3396 126.677 17.1844 126.743 16.9455C126.824 16.6573 126.657 16.3592 126.369 16.2779C124.272 15.6867 122.166 15.1053 120.102 14.5536C119.814 14.4772 119.516 14.6472 119.439 14.9354C119.363 15.2236 119.533 15.5217 119.821 15.598C121.878 16.1498 123.982 16.7287 126.073 17.3174C126.122 17.3322 126.172 17.3371 126.221 17.3371L126.223 17.3396ZM113.682 13.9821C113.924 13.9821 114.145 13.8195 114.207 13.5731C114.281 13.2825 114.104 12.9893 113.815 12.9154C111.699 12.3809 109.573 11.8611 107.502 11.3709C107.209 11.3019 106.92 11.4817 106.851 11.7724C106.782 12.0631 106.962 12.3538 107.253 12.4227C109.32 12.9105 111.441 13.4303 113.549 13.9623C113.594 13.9747 113.638 13.9796 113.682 13.9796V13.9821ZM101.048 10.9965C101.297 10.9965 101.521 10.824 101.575 10.5703C101.639 10.2796 101.454 9.98896 101.164 9.92737C99.0253 9.45933 96.8847 9.00854 94.8007 8.59223C94.51 8.53311 94.2218 8.72279 94.1651 9.01593C94.106 9.30907 94.2957 9.59481 94.5888 9.65147C96.6654 10.0678 98.8012 10.5161 100.932 10.9817C100.971 10.9891 101.011 10.994 101.048 10.994V10.9965ZM17.9686 10.4422C18.0498 10.4422 18.1336 10.4225 18.21 10.3856C20.0057 9.48396 22.0035 8.67352 24.1417 7.98131C24.425 7.89017 24.5802 7.58471 24.4891 7.29897C24.3979 7.01568 24.0924 6.85802 23.8067 6.95163C21.6143 7.66108 19.5673 8.49123 17.7222 9.41745C17.4562 9.55048 17.3478 9.87563 17.4808 10.1441C17.5769 10.3338 17.7666 10.4422 17.9636 10.4422H17.9686ZM88.3171 8.44689C88.5733 8.44689 88.8024 8.2646 88.8492 8.00102C88.9009 7.70788 88.7063 7.42459 88.4132 7.37286C86.2528 6.98365 84.0949 6.61908 82.0011 6.28899C81.7055 6.24218 81.4296 6.44418 81.3828 6.73979C81.336 7.03539 81.538 7.31128 81.8336 7.35808C83.92 7.68817 86.0705 8.05029 88.2235 8.4395C88.2555 8.44443 88.2876 8.44936 88.3196 8.44936L88.3171 8.44689ZM75.4929 6.42693C75.7614 6.42693 75.9929 6.22986 76.0274 5.95643C76.0668 5.66083 75.8599 5.3874 75.5618 5.34799C73.3793 5.05731 71.2042 4.79619 69.1029 4.57449C68.8024 4.54247 68.5388 4.75925 68.5092 5.05485C68.4772 5.35292 68.694 5.61895 68.9896 5.64851C71.0835 5.87021 73.2463 6.12887 75.4214 6.41954C75.4461 6.42201 75.4707 6.42448 75.4929 6.42448V6.42693ZM30.2509 6.36782C30.2878 6.36782 30.3247 6.36536 30.3592 6.3555C32.3619 5.94412 34.5026 5.59925 36.7221 5.33074C37.0177 5.29379 37.2295 5.02529 37.195 4.72968C37.1581 4.43408 36.8921 4.22223 36.594 4.25672C34.345 4.52769 32.1747 4.87748 30.1424 5.29625C29.8493 5.35537 29.6621 5.64359 29.7212 5.93426C29.773 6.19045 29.9996 6.36535 30.2509 6.36535V6.36782ZM62.5824 5.06963C62.8633 5.06963 63.0997 4.85285 63.1219 4.56957C63.1441 4.2715 62.9199 4.01285 62.6218 3.99068C60.4098 3.82563 58.2223 3.7 56.121 3.62117C55.8353 3.61132 55.5717 3.84287 55.5594 4.14094C55.5471 4.439 55.7811 4.69027 56.0792 4.70258C58.1681 4.78387 60.3408 4.90705 62.5405 5.06963C62.5553 5.06963 62.5676 5.06963 62.5824 5.06963ZM43.1219 4.77402C43.1219 4.77402 43.1416 4.77402 43.1515 4.77402C45.2207 4.65825 47.3934 4.5942 49.6128 4.58681C49.9109 4.58681 50.1523 4.34294 50.1523 4.04241C50.1523 3.74434 49.9084 3.50293 49.6104 3.50293C47.3736 3.51278 45.1813 3.57684 43.0948 3.69261C42.7967 3.70986 42.5676 3.96358 42.5849 4.26411C42.5997 4.55232 42.8386 4.77402 43.1244 4.77402H43.1219Z" fill="#031339"></path><path d="M405.284 264.449H405.294C407.533 264.407 409.726 264.308 411.807 264.156C412.105 264.133 412.329 263.875 412.307 263.577C412.285 263.279 412.029 263.054 411.728 263.077C409.667 263.229 407.494 263.325 405.274 263.367C404.976 263.372 404.737 263.619 404.742 263.919C404.747 264.215 404.989 264.451 405.282 264.451L405.284 264.449ZM398.793 264.419C399.086 264.419 399.325 264.185 399.333 263.892C399.34 263.594 399.106 263.345 398.806 263.338C396.717 263.281 394.541 263.183 392.342 263.04C392.039 263.025 391.787 263.247 391.768 263.545C391.748 263.843 391.975 264.099 392.273 264.119C394.487 264.261 396.675 264.362 398.778 264.419C398.783 264.419 398.788 264.419 398.793 264.419ZM385.838 263.596C386.114 263.596 386.348 263.387 386.375 263.109C386.405 262.811 386.186 262.547 385.89 262.517C383.799 262.315 381.633 262.074 379.453 261.798C379.158 261.761 378.887 261.971 378.85 262.269C378.813 262.564 379.022 262.835 379.32 262.872C381.51 263.148 383.685 263.389 385.787 263.594C385.804 263.594 385.821 263.596 385.838 263.596ZM418.219 263.468C418.244 263.468 418.271 263.468 418.298 263.463C420.547 263.141 422.708 262.737 424.723 262.259C425.013 262.19 425.193 261.899 425.124 261.608C425.055 261.318 424.764 261.138 424.474 261.207C422.491 261.675 420.36 262.076 418.143 262.394C417.847 262.436 417.643 262.712 417.685 263.008C417.724 263.276 417.956 263.471 418.219 263.471V263.468ZM372.958 261.985C373.221 261.985 373.45 261.793 373.492 261.525C373.536 261.229 373.334 260.953 373.039 260.909C370.95 260.594 368.799 260.244 366.644 259.869C366.348 259.818 366.07 260.015 366.018 260.31C365.967 260.603 366.164 260.884 366.459 260.936C368.622 261.313 370.782 261.663 372.879 261.978C372.906 261.983 372.933 261.985 372.96 261.985H372.958ZM430.814 260.419C430.876 260.419 430.94 260.409 431.002 260.384C433.169 259.586 435.177 258.657 436.968 257.628C437.227 257.48 437.315 257.147 437.167 256.889C437.017 256.63 436.687 256.541 436.428 256.689C434.689 257.689 432.736 258.591 430.627 259.369C430.346 259.473 430.204 259.783 430.307 260.064C430.388 260.283 430.595 260.419 430.814 260.419ZM360.165 259.766C360.419 259.766 360.646 259.586 360.695 259.327C360.752 259.034 360.559 258.751 360.266 258.694C358.192 258.29 356.056 257.854 353.916 257.396C353.625 257.335 353.337 257.519 353.273 257.812C353.211 258.106 353.396 258.391 353.689 258.455C355.835 258.914 357.978 259.352 360.059 259.756C360.094 259.763 360.128 259.766 360.163 259.766H360.165ZM347.469 257.056C347.716 257.056 347.937 256.886 347.996 256.637C348.063 256.347 347.883 256.056 347.592 255.987C345.523 255.509 343.402 254.999 341.289 254.475C340.998 254.403 340.705 254.58 340.633 254.869C340.562 255.159 340.739 255.452 341.027 255.524C343.146 256.049 345.274 256.559 347.348 257.039C347.39 257.049 347.43 257.054 347.472 257.054L347.469 257.056ZM334.867 253.935C335.106 253.935 335.325 253.775 335.389 253.531C335.465 253.243 335.293 252.947 335.005 252.871C332.938 252.326 330.834 251.755 328.745 251.176C328.457 251.097 328.159 251.265 328.08 251.553C328.001 251.841 328.169 252.139 328.457 252.218C330.548 252.799 332.659 253.371 334.729 253.918C334.775 253.93 334.822 253.935 334.867 253.935ZM441.922 253.878C442.055 253.878 442.188 253.829 442.291 253.731C443.947 252.174 445.333 250.432 446.415 248.553C446.563 248.294 446.474 247.964 446.215 247.814C445.957 247.666 445.627 247.755 445.476 248.013C444.447 249.802 443.126 251.459 441.547 252.942C441.331 253.147 441.318 253.489 441.523 253.706C441.629 253.819 441.774 253.876 441.917 253.876L441.922 253.878ZM322.36 250.459C322.594 250.459 322.811 250.307 322.88 250.07C322.964 249.784 322.799 249.484 322.513 249.4C320.463 248.801 318.372 248.176 316.3 247.543C316.015 247.456 315.712 247.617 315.625 247.902C315.539 248.188 315.699 248.491 315.985 248.577C318.062 249.213 320.158 249.839 322.212 250.437C322.262 250.452 322.313 250.459 322.365 250.459H322.36ZM309.942 246.668C310.171 246.668 310.386 246.52 310.457 246.291C310.548 246.006 310.391 245.703 310.105 245.611C308.063 244.961 306.006 244.293 303.934 243.611C303.651 243.518 303.346 243.67 303.252 243.956C303.158 244.239 303.313 244.545 303.597 244.638C305.671 245.323 307.73 245.991 309.777 246.644C309.832 246.661 309.888 246.668 309.942 246.668ZM448.277 242.793C448.526 242.793 448.748 242.621 448.804 242.37C449.194 240.618 449.391 238.751 449.391 236.822C449.391 236.477 449.386 236.132 449.371 235.783C449.359 235.485 449.115 235.248 448.812 235.26C448.514 235.27 448.28 235.521 448.29 235.82C448.302 236.155 448.307 236.49 448.307 236.82C448.307 238.67 448.117 240.456 447.745 242.133C447.681 242.424 447.863 242.714 448.156 242.779C448.196 242.788 448.235 242.791 448.275 242.791L448.277 242.793ZM297.613 242.596C297.837 242.596 298.049 242.456 298.126 242.229C298.222 241.946 298.071 241.638 297.788 241.542C295.758 240.847 293.716 240.138 291.662 239.411C291.381 239.313 291.071 239.458 290.972 239.741C290.874 240.022 291.021 240.332 291.302 240.431C293.359 241.158 295.404 241.87 297.438 242.567C297.497 242.586 297.557 242.596 297.613 242.596ZM447.972 229.925C448.011 229.925 448.051 229.92 448.09 229.912C448.381 229.846 448.565 229.558 448.499 229.267C448.046 227.252 447.413 225.141 446.617 222.988C446.513 222.707 446.201 222.564 445.922 222.668C445.641 222.771 445.499 223.082 445.602 223.362C446.38 225.471 447.001 227.538 447.442 229.503C447.499 229.755 447.723 229.927 447.969 229.927L447.972 229.925ZM443.555 217.753C443.634 217.753 443.715 217.736 443.791 217.699C444.06 217.569 444.173 217.246 444.043 216.977C443.136 215.108 442.102 213.169 440.966 211.218C440.816 210.959 440.486 210.871 440.227 211.021C439.968 211.171 439.88 211.501 440.03 211.76C441.151 213.689 442.173 215.603 443.067 217.448C443.161 217.64 443.353 217.753 443.555 217.753ZM437.071 206.518C437.175 206.518 437.278 206.488 437.369 206.429C437.618 206.264 437.687 205.929 437.522 205.68C436.367 203.934 435.113 202.138 433.793 200.337C433.615 200.096 433.278 200.044 433.036 200.222C432.795 200.399 432.743 200.736 432.921 200.978C434.229 202.764 435.475 204.547 436.621 206.279C436.724 206.437 436.896 206.52 437.071 206.52V206.518ZM429.413 196.039C429.531 196.039 429.649 195.999 429.75 195.921C429.984 195.736 430.024 195.393 429.836 195.159C428.526 193.511 427.132 191.822 425.696 190.137C425.501 189.91 425.161 189.883 424.932 190.075C424.705 190.27 424.678 190.61 424.87 190.839C426.299 192.516 427.686 194.196 428.989 195.834C429.095 195.97 429.253 196.039 429.413 196.039ZM420.998 186.153C421.126 186.153 421.257 186.107 421.36 186.013C421.582 185.813 421.599 185.471 421.399 185.249C419.981 183.68 418.49 182.074 416.973 180.483C416.766 180.266 416.424 180.259 416.209 180.463C415.992 180.67 415.985 181.012 416.189 181.227C417.7 182.813 419.185 184.409 420.596 185.973C420.702 186.092 420.85 186.151 420.998 186.151V186.153ZM412.049 176.748C412.187 176.748 412.324 176.697 412.43 176.591C412.642 176.379 412.642 176.036 412.43 175.824C410.933 174.322 409.371 172.79 407.789 171.267C407.575 171.06 407.23 171.068 407.023 171.282C406.816 171.496 406.824 171.839 407.038 172.048C408.615 173.563 410.169 175.093 411.662 176.588C411.768 176.694 411.906 176.748 412.044 176.748H412.049ZM402.695 167.745C402.841 167.745 402.986 167.686 403.092 167.572C403.294 167.353 403.281 167.011 403.062 166.809C401.5 165.363 399.885 163.889 398.254 162.431C398.03 162.232 397.69 162.251 397.49 162.473C397.291 162.695 397.31 163.037 397.532 163.237C399.158 164.69 400.769 166.158 402.326 167.602C402.429 167.698 402.562 167.747 402.693 167.747L402.695 167.745ZM393.022 159.083C393.174 159.083 393.325 159.019 393.431 158.896C393.625 158.67 393.6 158.33 393.376 158.133C391.765 156.738 390.103 155.317 388.432 153.913C388.203 153.721 387.863 153.75 387.671 153.979C387.479 154.208 387.509 154.548 387.738 154.741C389.403 156.142 391.063 157.559 392.669 158.95C392.773 159.039 392.898 159.083 393.024 159.083H393.022Z" fill="#031339"></path><path d="M135.838 357.325C136.131 357.325 136.372 357.091 136.38 356.795L136.441 353.918C136.449 353.62 136.21 353.371 135.912 353.366C135.614 353.361 135.365 353.598 135.36 353.896L135.298 356.773C135.291 357.071 135.53 357.32 135.828 357.325H135.84H135.838Z" fill="#031339"></path><path d="M135.619 367.393C135.912 367.393 136.154 367.159 136.161 366.863L136.222 363.986C136.23 363.688 135.991 363.439 135.693 363.434C135.4 363.432 135.146 363.666 135.141 363.964L135.079 366.841C135.072 367.139 135.311 367.388 135.609 367.393H135.621H135.619Z" fill="#031339"></path><path d="M142.138 360.971C142.436 360.971 142.677 360.732 142.68 360.434C142.68 360.136 142.441 359.892 142.143 359.889L139.307 359.867C139.002 359.882 138.763 360.106 138.763 360.404C138.763 360.702 138.999 360.946 139.3 360.949L142.135 360.971H142.14H142.138Z" fill="#031339"></path><path d="M132.216 360.892C132.514 360.892 132.755 360.653 132.758 360.355C132.758 360.057 132.519 359.813 132.221 359.81L129.385 359.788H129.381C129.082 359.788 128.841 360.027 128.839 360.325C128.839 360.623 129.078 360.867 129.376 360.87L132.211 360.892H132.216Z" fill="#031339"></path><path d="M257.651 51.1298C258.247 51.1298 258.843 51.019 259.417 50.7973C260.664 50.312 261.644 49.3611 262.181 48.1196C263.275 45.5823 262.139 42.6091 259.649 41.4907C258.449 40.9512 257.114 40.9167 255.89 41.3946C254.643 41.8799 253.663 42.8308 253.126 44.0723C252.032 46.6096 253.168 49.5828 255.658 50.7012C256.296 50.9869 256.974 51.1323 257.651 51.1323V51.1298ZM259.206 42.4736C261.159 43.3505 262.048 45.6907 261.186 47.6885C260.765 48.664 259.996 49.4079 259.023 49.7873C258.07 50.1568 257.033 50.1297 256.099 49.7109C254.146 48.834 253.257 46.4938 254.119 44.496C254.54 43.5205 255.306 42.7766 256.282 42.3972C257.235 42.0277 258.272 42.0548 259.206 42.4736Z" fill="#031339"></path></g><defs><clipPath id="clip0_474_25327"><rect width="452" height="449" fill="white" transform="matrix(-1 0 0 1 452 0)"></rect></clipPath></defs></svg>